<svg height="512" viewBox="0 0 58 59" width="512"
    xmlns="http://www.w3.org/2000/svg">
    <g id="Page-1" fill="none" fill-rule="evenodd">
        <g id="004---Paint-Brush" fill-rule="nonzero">
            <path id="Shape" d="m18.558 52.3c3.300902-3.590436 3.1842713-9.1448537-.2644375-12.5935625s-9.00312649-3.5653395-12.5935625-.2644375c-2.537 2.533-4.671 11.412-5.656 16.118-.13890147.6696181.06868864 1.3641692.55225972 1.8477403s1.1781222.6911612 1.84774028.5522597c4.702-.989 13.581-3.123 16.114-5.66z" fill="#3f5c6c"/>
            <path id="Shape" d="m27.035 39.539-8.574-8.574-1.186 3.557c-.5871175 1.7609874-.1287304 3.702551 1.184 5.015 1.312449 1.3127304 3.2540126 1.7711175 5.015 1.184z" fill="#805333"/>
            <rect id="Rectangle-path" fill="#f29c1f" height="6.063" rx="1" transform="matrix(.707 .707 -.707 .707 30.702 -7.904)" width="14.147" x="17.818" y="30.077"/>
            <path id="Shape" d="m57.047.956c-1.2077508-1.20821119-3.1443244-1.27634504-4.434-.156l-29.865 25.878 8.574 8.574 25.883-29.865c1.1179302-1.28973155 1.0489523-3.22416879-.158-4.431z" fill="#805333"/>
            <path id="Shape" d="m28.676 27.889c-.4176413.000179-.7914106-.2592087-.9373702-.6505142-.1459597-.3913056-.0333667-.8321097.2823702-1.1054858l6.125-5.308c.4181476-.3549828 1.0442003-.3068841 1.4032152.1078068.3590148.4146909.3169801 1.04118-.0942152 1.4041932l-6.124 5.308c-.1818751.157474-.4144244.244103-.655.244z" fill="#fff"/>
            <path id="Shape" d="m37.863 19.927c-.4176413.000179-.7914106-.2592087-.9373702-.6505142-.1459597-.3913056-.0333667-.8321097.2823702-1.1054858l3.038-2.633c.2700928-.234009.6445111-.3061494.9822152-.1892466.3377041.1169027.5873887.4050883.655.756s-.0571224.7112376-.3272152.9452466l-3.039 2.633c-.1813345.1577209-.4136712.2444031-.654.244z" fill="#fff"/>
            <g fill="#d75e72">
                <path id="Shape" d="m19 59h-17c-.55228475 0-1-.4477153-1-1s.44771525-1 1-1h17c.5522847 0 1 .4477153 1 1s-.4477153 1-1 1z"/>
                <path id="Shape" d="m26 59h-3c-.5522847 0-1-.4477153-1-1s.4477153-1 1-1h3c.5522847 0 1 .4477153 1 1s-.4477153 1-1 1z"/>
                <path id="Shape" d="m24 55h-2c-.5522847 0-1-.4477153-1-1s.4477153-1 1-1h2c.5522847 0 1 .4477153 1 1s-.4477153 1-1 1z"/>
                <path id="Shape" d="m36 55h-8c-.5522847 0-1-.4477153-1-1s.4477153-1 1-1h8c.5522847 0 1 .4477153 1 1s-.4477153 1-1 1z"/>
            </g>
            <path id="Shape" d="m14.8 54.47v.01c-4.0188474 1.4931515-8.15247261 2.6569877-12.36 3.48-.66857425.1330041-1.35941415-.076551-1.84143159-.5585684s-.69157252-1.1728573-.55856841-1.8414316c.79663914-4.0186096 1.88962481-7.9727443 3.27-11.83.85523221.629927 1.78576122 1.1506202 2.77 1.55 1.22695628.3956504 2.43199283.8563015 3.61 1.38 2.51 1.33 4.03 4 4.84 6.71.1.36.2.72.27 1.1z" fill="#df4d60"/>
        </g>
    </g>
</svg>