<svg height="512" viewBox="0 0 59 59" width="512"
    xmlns="http://www.w3.org/2000/svg">
    <g id="Page-1" fill="none" fill-rule="evenodd">
        <g id="005---Paint-Brush" fill-rule="nonzero">
            <g fill="#ff5364">
                <path id="Shape" d="m36 59h-11c-.5522847 0-1-.4477153-1-1s.4477153-1 1-1h11c.5522847 0 1 .4477153 1 1s-.4477153 1-1 1z"/>
                <path id="Shape" d="m43 59h-3c-.5522847 0-1-.4477153-1-1s.4477153-1 1-1h3c.5522847 0 1 .4477153 1 1s-.4477153 1-1 1z"/>
                <path id="Shape" d="m47 54h-9c-.5522847 0-1-.4477153-1-1s.4477153-1 1-1h9c.5522847 0 1 .4477153 1 1s-.4477153 1-1 1z"/>
                <path id="Shape" d="m54 54h-3c-.5522847 0-1-.4477153-1-1s.4477153-1 1-1h3c.5522847 0 1 .4477153 1 1s-.4477153 1-1 1z"/>
                <path id="Shape" d="m51 49h-8c-.5522847 0-1-.4477153-1-1s.4477153-1 1-1h8c.5522847 0 1 .4477153 1 1s-.4477153 1-1 1z"/>
                <path id="Shape" d="m58 49h-3c-.5522847 0-1-.4477153-1-1s.4477153-1 1-1h3c.5522847 0 1 .4477153 1 1s-.4477153 1-1 1z"/>
            </g>
            <path id="Shape" d="m12.587 45.413 7.673-7.673c.3307768-.3306049.3907162-.8453038.1447624-1.2430721-.2459537-.3977683-.7331969-.5741254-1.1767624-.4259279l-12.466 4.155c-.36213588.1206394-.76135195.0261596-1.031-.244l-4.55-4.549c-1.57318841-1.5743524-1.57318841-4.1256476 0-5.7l19.96-19.96c2.362-2.362 5.48-3.075 7.842-.713l19.247 19.24c2.3620107 2.3625584 2.3620107 6.1924416 0 8.555l-19.96 19.964c-1.5743524 1.5731884-4.1256476 1.5731884-5.7 0l-9.98-9.98c-.1895796-.1886576-.2964111-.4449241-.2969737-.7123784-.0005627-.2674542.1051896-.524168.2939737-.7136216z" fill="#a56a43"/>
            <path id="Rectangle-path" d="m11.254 23.559h38.309v8.065h-38.309z" fill="#f29c1f" transform="matrix(.707 .707 -.707 .707 28.417 -13.421)"/>
            <path id="Shape" d="m56.072 1.929c-3.018-3.018-8.272-2.419-11.164 1.271l-9.572 12.21 7.253 7.252 12.211-9.57c3.69-2.892 4.289-8.146 1.272-11.163zm-3.565 6.415c-.5765659.57658795-1.4436895.74908249-2.1970265.43704852-.7533371-.31203398-1.244528-1.04714562-1.244528-1.86254852s.4911909-1.55051454 1.244528-1.86254852c.753337-.31203397 1.6204606-.13953943 2.1970265.43704852.3783019.37794094.59086.89075553.59086 1.4255s-.2125581 1.04755906-.59086 1.4255z" fill="#cb8252"/>
            <path id="Shape" d="m41.1 43.99-12.83 12.83c-1.5757176 1.5698873-4.1242824 1.5698873-5.7 0l-2.86-2.86-1.41-1.41-5.71-5.71c-.1924127-.1881405-.3008755-.4458913-.3008755-.715s.1084628-.5268595.3008755-.715l7.67-7.67c.3308937-.3302573.3912814-.8446906.1458647-1.2425992-.2454166-.3979086-.732222-.5748516-1.1758647-.4274008l-12.47 4.16c-.36300004.11774-.76136624.0210491-1.03-.25l-.99-.99-1.41-1.41-1.44-1.44-.71-.71c-.23740552-.2388762-.44248473-.5078325-.61-.8-.94157615-1.5805508-.69035623-3.5985469.61-4.9l12.83-12.83z" fill="#3f5c6c"/>
            <path id="Shape" d="m20.428 18.611c-.2651948-.0000566-.5195073-.1054506-.707-.293l-.713-.713c-.3789722-.3923789-.3735524-1.0160848.0121814-1.4018186s1.0094397-.3911536 1.4018186-.0121814l.713.713c.2859079.2859943.3714219.7160366.216678 1.0896546-.1547439.3736179-.5192821.6172591-.923678.6173454z" fill="#f3d55b"/>
            <path id="Shape" d="m30.409 28.591c-.2657518.0017834-.5211289-.1030328-.709-.291l-7.84-7.843c-.3789722-.3923789-.3735524-1.0160848.0121814-1.4018186s1.0094397-.3911536 1.4018186-.0121814l7.842 7.841c.2859079.2859943.3714219.7160366.216678 1.0896546-.1547439.3736179-.5192821.6172591-.923678.6173454z" fill="#f3d55b"/>
            <path id="Shape" d="m23.993 42.136c-.4043959-.0000863-.7689341-.2437275-.923678-.6173454-.1547439-.373618-.0692299-.8036603.216678-1.0896546l.714-.713c.3923789-.3789722 1.0160848-.3735524 1.4018186.0121814s.3911536 1.0094397.0121814 1.4018186l-.713.713c-.1877377.1877946-.4424587.2932088-.708.293z" fill="#ff5364"/>
            <path id="Shape" d="m23.99 49.68-4.28 4.28-1.41-1.41 4.27-4.28c.3930079-.3899779 1.0269921-.3899779 1.42 0 .3877236.3900375.3877236 1.0199625 0 1.41z" fill="#ff5364"/>
            <path id="Shape" d="m9.02 34.71-4.28 4.28-1.41-1.41 4.27-4.28c.39300794-.3899779 1.02699206-.3899779 1.42 0 .38772359.3900375.38772359 1.0199625 0 1.41z" fill="#ff5364"/>
            <path id="Shape" d="m12.587 25.027c-.4043959-.0000863-.7689341-.2437275-.923678-.6173454-.1547439-.373618-.0692299-.8036603.216678-1.0896546l.713-.713c.2510745-.2599566.6228779-.3642126.9725073-.2726972.3496295.0915155.6226744.3645604.7141899.7141899.0915154.3496294-.0127406.7214328-.2726972.9725073l-.713.713c-.1870531.1882061-.4416514.2937185-.707.293z" fill="#ff5364"/>
            <path id="Shape" d="m10.44 27.59-8.55 8.55-.71-.71c-.23740552-.2388762-.44248473-.5078325-.61-.8l8.46-8.46c.39003745-.3877236 1.0199625-.3877236 1.41 0 .3899779.3930079.3899779 1.0269921 0 1.42z" fill="#ff5364"/>
        </g>
    </g>
</svg>