<svg height="512" viewBox="0 0 58 58" width="512"
    xmlns="http://www.w3.org/2000/svg">
    <g id="Page-1" fill="none" fill-rule="evenodd">
        <g id="008---Roller" fill-rule="nonzero">
            <path id="Shape" d="m50 4v8h-3c-1.1032019.0032948-1.9967052.8967981-2 2v2c-.0081672 1.1011688-.8988312 1.9918328-2 2-1.1032019-.0032948-1.9967052-.8967981-2-2v-2c-.0081672-1.1011688-.8988312-1.9918328-2-2-1.1032019.0032948-1.9967052.8967981-2 2v5c-.0081672 1.1011688-.8988312 1.9918328-2 2-1.1032019-.0032948-1.9967052-.8967981-2-2v-5c0-1.1045695-.8954305-2-2-2s-2 .8954305-2 2c-.0081672 1.1011688-.8988312 1.9918328-2 2-1.1032019-.0032948-1.9967052-.8967981-2-2v-1c-.0032948-1.1032019-.8967981-1.9967052-2-2h-15v-7c0-2.209139 1.790861-4 4-4h34c2.209139 0 4 1.790861 4 4z" fill="#cc66a1"/>
            <path id="Shape" d="m50 12v8c0 2.209139-1.790861 4-4 4h-34c-2.209139 0-4-1.790861-4-4v-9h15c1.1032019.0032948 1.9967052.8967981 2 2v1c.0032948 1.1032019.8967981 1.9967052 2 2 1.1011688-.0081672 1.9918328-.8988312 2-2 0-1.1045695.8954305-2 2-2s2 .8954305 2 2v5c.0032948 1.1032019.8967981 1.9967052 2 2 1.1011688-.0081672 1.9918328-.8988312 2-2v-5c.0032948-1.1032019.8967981-1.9967052 2-2 1.1011688.0081672 1.9918328.8988312 2 2v2c.0032948 1.1032019.8967981 1.9967052 2 2 1.1011688-.0081672 1.9918328-.8988312 2-2v-2c.0032948-1.1032019.8967981-1.9967052 2-2z" fill="#56595e"/>
            <path id="Shape" d="m2 7h6v10h-6c-1.1045695 0-2-.8954305-2-2v-6c0-1.1045695.8954305-2 2-2z" fill="#547580"/>
            <path id="Shape" d="m25 40h8c1.1045695 0 2 .8954305 2 2v12c0 2.209139-1.790861 4-4 4h-4c-2.209139 0-4-1.790861-4-4v-12c0-1.1045695.8954305-2 2-2z" fill="#805333"/>
            <path id="Shape" d="m27 40v-5c0-3.3137085 2.6862915-6 6-6h19c1.1032019-.0032948 1.9967052-.8967981 2-2v-13h-4v-4h4c2.209139 0 4 1.790861 4 4v13c0 3.3137085-2.6862915 6-6 6h-19c-1.1032019.0032948-1.9967052.8967981-2 2v5z" fill="#547580"/>
            <g fill="#fff">
                <path id="Shape" d="m14 5h-2c-.5522847 0-1-.44771525-1-1s.4477153-1 1-1h2c.5522847 0 1 .44771525 1 1s-.4477153 1-1 1z"/>
                <path id="Shape" d="m37 5h-19c-.5522847 0-1-.44771525-1-1s.4477153-1 1-1h19c.5522847 0 1 .44771525 1 1s-.4477153 1-1 1z"/>
            </g>
        </g>
    </g>
</svg>