<svg height="512" viewBox="0 0 58 59" width="512"
    xmlns="http://www.w3.org/2000/svg">
    <g id="Page-1" fill="none" fill-rule="evenodd">
        <g id="009---Mouse-Brush" fill-rule="nonzero">
            <path id="Shape" d="m34 18v10.6l-6.2 5.27c-.04.04-.09.08-.13.12s-.1.09-.15.14l-2.93 2.93c-.1529501.1517722-.2934058.3156371-.42.49-.1238162.1746814-.2341358.3585474-.33.55l-1.2 2.39c-.286554.5783462-.4370569 1.214563-.44 1.86-.0005043 1.1061862.4383256 2.1672911 1.22 2.95-1.7068203-1.703422-4.2693112-2.2159202-6.5-1.3h-6.92c-5.5228475 0-10-4.4771525-10-10v-16h15v4c0 1.1045695.8954305 2 2 2s2-.8954305 2-2v-4z" fill="#95a5a5"/>
            <path id="Shape" d="m17 0v12c-1.1032019.0032948-1.9967052.8967981-2 2v4h-15v-10c0-4.418278 3.581722-8 8-8z" fill="#9fc9d3"/>
            <path id="Shape" d="m34 8v10h-15v-4c-.0081672-1.1011688-.8988312-1.9918328-2-2v-12h9c4.418278 0 8 3.581722 8 8z" fill="#84b5cb"/>
            <path id="Shape" d="m5 23h-1c-.55228475 0-1-.4477153-1-1s.44771525-1 1-1h1c.55228475 0 1 .4477153 1 1s-.44771525 1-1 1z" fill="#fff"/>
            <path id="Shape" d="m11 23h-2c-.55228475 0-1-.4477153-1-1s.44771525-1 1-1h2c.5522847 0 1 .4477153 1 1s-.4477153 1-1 1z" fill="#fff"/>
            <path id="Shape" d="m19 14v8c0 1.1045695-.8954305 2-2 2s-2-.8954305-2-2v-8c.0032948-1.1032019.8967981-1.9967052 2-2 1.1011688.0081672 1.9918328.8988312 2 2z" fill="#35495e"/>
            <path id="Shape" d="m23.37 53.83c-1.42 1.43-6.08 3.02-9.57 4.06-.8411116.2575309-1.7556834.0297018-2.3776926-.5923074s-.8498383-1.536581-.5923074-2.3776926c1.04-3.49 2.63-8.15 4.06-9.57.5791439-.5817552 1.2695422-1.0408871 2.03-1.35 2.6532403-1.0882622 5.7055661-.1426131 7.2788166 2.2550695 1.5732505 2.3976825 1.2256915 5.5741818-.8288166 7.5749305z" fill="#3f5c6c"/>
            <path id="Shape" d="m58 12.89c.002586.5143573-.1822697 1.0120459-.52 1.4l-22.63 26.63c-.04.04-.08.09-.12.13s-.09.1-.14.15l-2.93 2.93c-.1517722.1529501-.3156371.2934058-.49.42-.1746814.1238162-.3585474.2341358-.55.33l-2.39 1.2c-1.2920957.6464425-2.8268722.5772749-4.0555817-.1827727-1.2287096-.7600475-1.9758997-2.1024446-1.9744183-3.5472273.0029431-.645437.153446-1.2816538.44-1.86l1.2-2.39c.0958642-.1914526.2061838-.3753186.33-.55.1265942-.1743629.2670499-.3382278.42-.49l2.93-2.93c.05-.05.1-.09.15-.14s.09-.08.13-.12l6.2-5.27 20.43-17.36c.6444114-.5430636 1.5448778-.6641403 2.3098489-.3105822s1.2562256 1.1178671 1.2601511 1.9605822z" fill="#805333"/>
            <path id="Shape" d="m34.73 41.05c-.05.05-.09.1-.14.15l-2.93 2.93c-.1517722.1529501-.3156371.2934058-.49.42l-7-7c.1265942-.1743629.2670499-.3382278.42-.49l2.93-2.93c.05-.05.1-.09.15-.14z" fill="#f29c1f"/>
            <g fill="#d75e72">
                <path id="Shape" d="m34 59h-21c-.5522847 0-1-.4477153-1-1s.4477153-1 1-1h21c.5522847 0 1 .4477153 1 1s-.4477153 1-1 1z"/>
                <path id="Shape" d="m41 59h-3c-.5522847 0-1-.4477153-1-1s.4477153-1 1-1h3c.5522847 0 1 .4477153 1 1s-.4477153 1-1 1z"/>
            </g>
        </g>
    </g>
</svg>