<svg height="512" viewBox="0 0 58 58" width="512"
    xmlns="http://www.w3.org/2000/svg">
    <g id="Page-1" fill="none" fill-rule="evenodd">
        <g id="022---Screw-Driver" fill-rule="nonzero">
            <path id="Shape" d="m22.66 29.64-3.37 3.37c-.1235042.1274443-.2572892.2445062-.4.35l-16.03 12.26c-2.09160142 1.4943013-3.1660157 4.0371978-2.77953322 6.5785289.38648247 2.5413312 2.16827951 4.6498587 4.6095479 5.4548067 2.44126839.8049481 5.12774948.1697251 6.94998532-1.6433356.2649886-.2739032.5121612-.5644981.74-.87l12.26-16.03c.1084158-.1403333.2253-.2739153.35-.4l3.37-3.37zm-15.47 24.23c-1.68722659.0027592-3.05723115-1.3627707-3.05999181-3.0499973-.00276067-1.6872266 1.36276797-3.0572323 3.04999455-3.0599945 1.68722659-.0027622 3.05723356 1.3627652 3.05999726 3.0499918.000009 1.6860938-1.36391522 3.0544899-3.05 3.06z" fill="#f44335"/>
            <path id="Shape" d="m12.95 46.052c-.4043959-.0000863-.7689341-.2437275-.923678-.6173454-.1547439-.373618-.0692299-.8036603.216678-1.0896546l2.16-2.16c.3907415-.3904653 1.0240347-.3902415 1.4145.0005s.3902415 1.0240347-.0005 1.4145l-2.16 2.16c-.1876563.1871827-.4419486.2922087-.707.292z" fill="#fff"/>
            <path id="Shape" d="m19.1 39.9c-.4043959-.0000863-.7689341-.2437275-.923678-.6173454-.1547439-.373618-.0692299-.8036603.216678-1.0896546l6.412-6.413c.3921222-.3907415 1.0267585-.3896222 1.4175.0025s.3896222 1.0267585-.0025 1.4175l-6.412 6.413c-.1887167.1855963-.4433177.2888032-.708.287z" fill="#fff"/>
            <path id="Shape" d="m57.831 4.675-2.392 3.588-5.7-5.7 3.588-2.392c.4005323-.26715917.9342052-.2130792 1.273.129l3.105 3.1c.3414332.34021374.3942368.87453652.126 1.275z" fill="#a5a5a4"/>
            <path id="Shape" d="m55.439 8.263-7.838 4.987-17.813 17.813-2.85-2.85 17.813-17.813 4.988-7.837z" fill="#d1d4d1"/>
            <path id="Shape" d="m19.8766845 29.0483211h14.123c.5522848 0 1 .4477152 1 1v.031c0 1.6568542-1.3431457 3-3 3h-10.123c-1.6568542 0-3-1.3431458-3-3v-.031c0-.5522848.4477153-1 1-1z" fill="#c03a2b" transform="matrix(.707 .707 -.707 .707 29.855 -9.95)"/>
        </g>
    </g>
</svg>