<svg height="512" viewBox="0 0 56 58" width="512"
    xmlns="http://www.w3.org/2000/svg">
    <g id="Page-1" fill="none" fill-rule="evenodd">
        <g id="033---Key" fill-rule="nonzero">
            <path id="Shape" d="m31.46 19.128 18.64-18.828c.1875579-.19134861.4440598-.29942524.712-.3h4.188c.5522847 0 1 .44771525 1 1v7.089c.0002107.26407252-.1040395.51750854-.29.705l-1.59 1.606c-.1453546.1467799-.3325984.2449431-.536.281l-2.3.411c-.4657933.0825468-.8100244.480186-.825.953l-.044 1.313c-.0154394.4724337-.3595637.8695322-.825.952l-1.812.324c-.4657933.0825468-.8100244.480186-.825.953l-.041 1.313c-.0149756.472814-.3592067.8704532-.825.953l-1.811.324c-.4654363.0824678-.8095606.4795663-.825.952l-.058 1.731c-.008525.2522491-.1121192.4919449-.29.671l-4.631 4.68z" fill="#95a5a5"/>
            <path id="Shape" d="m34.265 22.961c-.4020714-.0012617-.764285-.2432092-.9194243-.614147-.1551393-.3709377-.0730291-.7987171.2084243-1.085853l6.31-6.376c.3885323-.3926745 1.0218255-.3960323 1.4145-.0075s.3960323 1.0218255.0075 1.4145l-6.31 6.376c-.1884717.1885324-.4444197.2940075-.711.293z" fill="#547580"/>
            <path id="Shape" d="m44.081 13.043c-.4020714-.0012617-.764285-.2432092-.9194243-.614147-.1551393-.3709377-.0730291-.7987171.2084243-1.085853l2.1-2.126c.2509791-.2554449.6191715-.35758998.9658829-.26795818.3467113.08963181.6192677.3574233.715.70250001.0957322.34507671.0000962.71501327-.2508829.97045817l-2.1 2.125c-.1899244.1916177-.4492167.2983639-.719.296z" fill="#547580"/>
            <path id="Shape" d="m25.311 21.09 2.643-2.671c.3708585-.3740465.8757678-.5844538 1.4025-.5844538s1.0316415.2104073 1.4025.5844538l8.414 8.5c.7710412.786946.7710412 2.046054 0 2.833l-2.644 2.671z" fill="#802d40"/>
            <path id="Shape" d="m32.16 25.5c-3.5153284-3.565214-8.3131762-5.5723777-13.32-5.5723777s-9.80467157 2.0071637-13.32 5.5723777c-7.36025397 7.4640464-7.36025397 19.4559536 0 26.92 3.51290564 3.5697285 8.3116602 5.5800275 13.32 5.5800275s9.8070944-2.010299 13.32-5.5800275c7.360254-7.4640464 7.360254-19.4559536 0-26.92zm-15.42 26.92-.01.01c-.5546011.5613692-1.3108753.8773183-2.1.8773183s-1.5453989-.3159491-2.1-.8773183l-7.02-7.09c-1.16010031-1.1791668-1.16010031-3.0708332 0-4.25h.01c.55216015-.5659066 1.3093477-.885011 2.1-.885011s1.54783985.3191044 2.1.885011l7.02 7.09c1.1599938 1.175317 1.1599938 3.064683 0 4.24z" fill="#ff5364"/>
            <path id="Shape" d="m31.46 36.13c1.5487511 1.5719423 1.5487511 4.0960577 0 5.668l-4.207 4.251c-.7399423.7510277-1.7501959 1.1738951-2.8045 1.1738951s-2.0645577-.4228674-2.8045-1.1738951l-9.816-9.919c-1.5491715-1.5713806-1.5491715-4.0956194 0-5.667l4.207-4.251c.7399423-.7510277 1.7501959-1.1738951 2.8045-1.1738951s2.0645577.4228674 2.8045 1.1738951z" fill="#802d40"/>
        </g>
    </g>
</svg>