<svg height="512pt" viewBox="0 -75 512 512" width="512pt"
    xmlns="http://www.w3.org/2000/svg">
    <path d="m141.242188 317.792969c0 24.375-19.761719 44.136719-44.140626 44.136719-24.375 0-44.136718-19.761719-44.136718-44.136719s19.761718-44.136719 44.136718-44.136719c24.378907 0 44.140626 19.761719 44.140626 44.136719zm0 0" fill="#2c3e50"/>
    <path d="m8.828125 0h494.34375c4.875 0 8.828125 3.953125 8.828125 8.828125v211.863281c0 4.875-3.953125 8.824219-8.828125 8.824219h-494.34375c-4.875 0-8.828125-3.949219-8.828125-8.824219v-211.863281c0-4.875 3.953125-8.828125 8.828125-8.828125zm0 0" fill="#556080"/>
    <path d="m70.621094 158.898438c-2.34375 0-4.589844-.929688-6.242188-2.589844l-35.308594-35.308594c-1.65625-1.65625-2.585937-3.898438-2.585937-6.242188 0-2.339843.929687-4.585937 2.585937-6.242187l35.308594-35.308594c3.464844-3.34375 8.96875-3.296875 12.375.109375 3.40625 3.402344 3.453125 8.910156.109375 12.371094l-29.070312 29.070312 29.070312 29.070313c2.523438 2.523437 3.277344 6.320313 1.910157 9.617187-1.363282 3.300782-4.582032 5.449219-8.152344 5.453126zm0 0" fill="#8697cb"/>
    <path d="m441.378906 158.898438c-3.570312-.003907-6.789062-2.152344-8.152344-5.453126-1.367187-3.296874-.613281-7.09375 1.910157-9.617187l29.070312-29.070313-29.070312-29.070312c-3.34375-3.460938-3.296875-8.96875.109375-12.371094 3.40625-3.40625 8.910156-3.453125 12.375-.109375l35.308594 35.308594c1.65625 1.65625 2.585937 3.902344 2.585937 6.242187 0 2.34375-.929687 4.585938-2.585937 6.242188l-35.308594 35.308594c-1.652344 1.660156-3.898438 2.589844-6.242188 2.589844zm0 0" fill="#8697cb"/>
    <path d="m114.757812 35.308594h141.242188c4.875 0 8.828125 3.953125 8.828125 8.828125v141.242187c0 4.875-3.953125 8.828125-8.828125 8.828125h-141.242188c-4.875 0-8.828124-3.953125-8.828124-8.828125v-141.242187c0-4.875 3.953124-8.828125 8.828124-8.828125zm0 0" fill="#67b9cc"/>
    <g fill="#2c3e50">
        <path d="m414.898438 52.964844h-114.761719c-4.875 0-8.828125-3.953125-8.828125-8.828125s3.953125-8.828125 8.828125-8.828125h114.761719c4.875 0 8.824218 3.953125 8.824218 8.828125s-3.949218 8.828125-8.824218 8.828125zm0 0"/>
        <path d="m397.242188 88.277344h-97.105469c-4.875 0-8.828125-3.953125-8.828125-8.828125s3.953125-8.828125 8.828125-8.828125h97.105469c4.875 0 8.828124 3.953125 8.828124 8.828125s-3.953124 8.828125-8.828124 8.828125zm0 0"/>
        <path d="m370.757812 123.585938h-70.621093c-4.875 0-8.828125-3.953126-8.828125-8.828126s3.953125-8.828124 8.828125-8.828124h70.621093c4.875 0 8.828126 3.953124 8.828126 8.828124s-3.953126 8.828126-8.828126 8.828126zm0 0"/>
        <path d="m344.277344 158.898438h-44.140625c-4.875 0-8.828125-3.953126-8.828125-8.828126s3.953125-8.828124 8.828125-8.828124h44.140625c4.875 0 8.824218 3.953124 8.824218 8.828124s-3.949218 8.828126-8.824218 8.828126zm0 0"/>
        <path d="m317.792969 194.207031h-17.65625c-4.875 0-8.828125-3.953125-8.828125-8.828125s3.953125-8.828125 8.828125-8.828125h17.65625c4.875 0 8.828125 3.953125 8.828125 8.828125s-3.953125 8.828125-8.828125 8.828125zm0 0"/>
    </g>
    <path d="m203.035156 194.207031h-88.277344c-4.867187-.015625-8.8125-3.957031-8.828124-8.828125v-7.328125l36.371093-66.734375c1.539063-2.855468 4.523438-4.636718 7.769531-4.636718 3.242188 0 6.226563 1.78125 7.765626 4.636718l32.398437 59.320313zm0 0" fill="#7f8c8d"/>
    <path d="m262.445312 191.382812c-1.648437 1.816407-3.992187 2.84375-6.445312 2.824219h-52.964844l-12.800781-23.570312 22.6875-41.664063c1.566406-2.820312 4.542969-4.570312 7.769531-4.570312 3.226563 0 6.199219 1.75 7.765625 4.570312zm0 0" fill="#7f8c8d"/>
    <path d="m211.863281 79.449219c0 9.75-7.90625 17.652343-17.65625 17.652343s-17.65625-7.902343-17.65625-17.652343 7.90625-17.65625 17.65625-17.65625 17.65625 7.90625 17.65625 17.65625zm0 0" fill="#f3d55b"/>
    <path d="m114.757812 317.792969c0 9.75-7.902343 17.65625-17.65625 17.65625-9.75 0-17.652343-7.90625-17.652343-17.65625s7.902343-17.65625 17.652343-17.65625c9.753907 0 17.65625 7.90625 17.65625 17.65625zm0 0" fill="#fff"/>
    <path d="m220.691406 317.792969c0 9.75-7.90625 17.65625-17.65625 17.65625s-17.65625-7.90625-17.65625-17.65625 7.90625-17.65625 17.65625-17.65625 17.65625 7.90625 17.65625 17.65625zm0 0" fill="#7f8c8d"/>
    <path d="m326.621094 317.792969c0 9.75-7.90625 17.65625-17.65625 17.65625s-17.65625-7.90625-17.65625-17.65625 7.90625-17.65625 17.65625-17.65625 17.65625 7.90625 17.65625 17.65625zm0 0" fill="#7f8c8d"/>
    <path d="m432.550781 317.792969c0 9.75-7.902343 17.65625-17.652343 17.65625-9.753907 0-17.65625-7.90625-17.65625-17.65625s7.902343-17.65625 17.65625-17.65625c9.75 0 17.652343 7.90625 17.652343 17.65625zm0 0" fill="#7f8c8d"/>
</svg>