<?xml version="1.0" encoding="iso-8859-1"?>
<!-- Generator: Adobe Illustrator 19.0.0, SVG Export Plug-In . SVG Version: 6.00 Build 0)  -->
<svg version="1.1" id="Capa_1" xmlns="http://www.w3.org/2000/svg" xmlns:xlink="http://www.w3.org/1999/xlink" x="0px" y="0px"
	 viewBox="0 0 512 512" style="enable-background:new 0 0 512 512;" xml:space="preserve">
<g>
	<path style="fill:#BDC3C7;" d="M494.345,370.759H320l172.314-99.487c8.413-4.892,11.292-15.661,6.444-24.099l-52.966-91.719
		c-2.324-4.068-6.179-7.038-10.706-8.249c-4.526-1.21-9.349-0.561-13.394,1.804l-138.858,80.154L362.99,90.306
		c2.365-4.045,3.015-8.867,1.804-13.394c-1.21-4.526-4.18-8.381-8.248-10.706l-91.719-52.966
		c-8.438-4.849-19.208-1.969-24.099,6.444L141.241,192v37.517L0,370.759v123.586c0.029,9.739,7.916,17.627,17.655,17.655h476.69
		c9.739-0.029,17.627-7.916,17.655-17.655V388.414C511.972,378.675,504.084,370.787,494.345,370.759z"/>
	<polyline style="fill:#DF4D60;" points="256,407.658 256,476.69 185.379,476.69 185.379,448.441 	"/>
	<rect x="291.31" y="406.069" style="fill:#FF5364;" width="70.621" height="70.621"/>
	<rect x="397.241" y="406.069" style="fill:#FB7B76;" width="70.621" height="70.621"/>
	<path style="fill:#D1D4D1;" d="M141.241,473.953l0.441-0.265l43.697-25.247L256,407.658l64-36.899l172.314-99.487
		c8.413-4.892,11.292-15.661,6.444-24.099l-52.966-91.719c-2.325-4.068-6.179-7.038-10.706-8.248
		c-4.526-1.21-9.349-0.561-13.394,1.804l-138.858,80.154L141.241,473.953z"/>
	<polyline style="fill:#41767F;" points="197.032,377.821 197.032,377.909 207.007,395.211 249.379,370.759 268.182,359.901 
		237.815,307.288 237.815,307.2 	"/>
	
		<rect x="276.379" y="258.682" transform="matrix(-0.866 0.5 -0.5 -0.866 728.6154 392.7533)" style="fill:#67B9CC;" width="70.621" height="70.621"/>
	
		<rect x="368.146" y="205.719" transform="matrix(-0.866 0.5 -0.5 -0.866 873.3743 248.0395)" style="fill:#9FC9D3;" width="70.621" height="70.621"/>
	<path style="fill:#E6E7E8;" d="M141.241,192l99.487-172.314c4.892-8.413,15.661-11.292,24.099-6.444l91.719,52.966
		c4.068,2.325,7.038,6.179,8.248,10.706c1.21,4.526,0.561,9.349-1.804,13.394l-80.154,138.858L237.815,307.2v0.088l-36.723,63.47
		l-4.061,7.062v0.088l-55.349,95.779l-0.441,0.706V192z"/>
	<polyline style="fill:#B19046;" points="141.241,319.117 173.992,338.008 177.964,340.303 186.527,325.473 213.274,279.128 
		204.8,274.185 152.099,243.818 141.241,262.621 	"/>
	
		<rect x="182.699" y="164.979" transform="matrix(-0.5 0.866 -0.866 -0.5 500.4692 111.6318)" style="fill:#E4C05C;" width="70.621" height="70.621"/>
	
		<rect x="235.658" y="73.237" transform="matrix(-0.5 0.866 -0.866 -0.5 500.4575 -71.846)" style="fill:#F3D55B;" width="70.621" height="70.621"/>
	<path style="fill:#D1D4D1;" d="M0,339.862l141.241-141.241v295.724c-0.029,9.739-7.916,17.627-17.655,17.655H17.655
		C7.916,511.971,0.029,504.084,0,494.345V339.862z"/>
	<circle style="fill:#FFFFFF;" cx="70.621" cy="450.207" r="17.655"/>
	<path style="fill:#67B9CC;" d="M123.586,0H17.655C7.916,0.028,0.028,7.916,0,17.655v353.103l141.241-141.241V17.655
		C141.213,7.916,133.325,0.028,123.586,0z"/>
	<polygon style="fill:#41767F;" points="141.241,17.655 141.241,123.586 0,264.828 0,158.897 	"/>
</g>
<g>
</g>
<g>
</g>
<g>
</g>
<g>
</g>
<g>
</g>
<g>
</g>
<g>
</g>
<g>
</g>
<g>
</g>
<g>
</g>
<g>
</g>
<g>
</g>
<g>
</g>
<g>
</g>
<g>
</g>
</svg>