<svg height="512" viewBox="0 0 58 58" width="512"
    xmlns="http://www.w3.org/2000/svg">
    <g id="Page-1" fill="none" fill-rule="evenodd">
        <g id="014---Magic-Crystals" fill-rule="nonzero">
            <path id="Shape" d="m55 42.28c.0198587.4723892-.1931209.9245038-.57 1.21l-13.91 10.51-11.52 4v-24.9h18.66l5.6.3c.7249891.0351816 1.3048184.6150109 1.34 1.34z" fill="#67b0c3"/>
            <path id="Shape" d="m29 33.1v23.9l-11.52-3-13.91-10.51c-.37687906-.2854962-.58985865-.7376108-.57-1.21l.4-7.54c.03518159-.7249891.61501088-1.3048184 1.34-1.34l5.6-.3z" fill="#2f9fc3"/>
            <path id="Shape" d="m24 54h-6.52l-13.38-10.11-.53-.4c-.37687906-.2854962-.58985865-.7376108-.57-1.21l.01-.14.39-7.4c.01771094-.349857.16366894-.6809325.41-.93z" fill="#67b0c3"/>
            <path id="Shape" d="m55 42.28c.0198587.4723892-.1931209.9245038-.57 1.21l-.53.4-13.38 10.11h-6.52l20.19-20.19c.2463311.2490675.3922891.580143.41.93l.39 7.41z" fill="#2f9fc3"/>
            <g fill="#3b8eca">
                <path id="Shape" d="m22.078 53.077c-.2651948-.0000566-.5195073-.1054506-.707-.293l-14.777-14.777c-.25995658-.2510745-.3642126-.6228779-.27269716-.9725073.09151544-.3496295.3645604-.6226744.71418984-.7141899.34962943-.0915154.72143285.0127406.97250732.2726972l14.777 14.777c.2859079.2859943.3714219.7160366.216678 1.0896546-.1547439.3736179-.5192821.6172591-.923678.6173454z"/>
                <path id="Shape" d="m6.28 41.71-2.18 2.18-.53-.4c-.37687906-.2854962-.58985865-.7376108-.57-1.21l.01-.14 1.85-1.85c.39212218-.3921221 1.02787781-.3921221 1.41999996 0 .39212216.3921222.39212218 1.0278778.00000004 1.42z"/>
                <path id="Shape" d="m11 36.56c-.4043959-.0000863-.7689341-.2437275-.923678-.6173454-.15474391-.373618-.0692299-.8036603.216678-1.0896546l1.675-1.675c.3923789-.3789722 1.0160848-.3735524 1.4018186.0121814s.3911536 1.0094397.0121814 1.4018186l-1.675 1.675c-.1874927.1875494-.4418052.2929434-.707.293z"/>
                <path id="Shape" d="m35.835 53.165c-.4043959-.0000863-.7689341-.2437275-.923678-.6173454-.1547439-.373618-.0692299-.8036603.216678-1.0896546l14.864-14.865c.2510745-.2599566.6228779-.3642126.9725073-.2726972.3496295.0915155.6226744.3645604.7141899.7141899.0915154.3496294-.0127406.7214328-.2726972.9725073l-14.864 14.865c-.1874927.1875494-.4418052.2929434-.707.293z"/>
                <path id="Shape" d="m55 42.28c.0198587.4723892-.1931209.9245038-.57 1.21l-.53.4-2.18-2.18c-.3921222-.3921222-.3921222-1.0278778 0-1.42s1.0278778-.3921222 1.42 0l1.85 1.86z"/>
                <path id="Shape" d="m47 36.56c-.2651948-.0000566-.5195073-.1054506-.707-.293l-2.459-2.46c-.3789722-.3923789-.3735524-1.0160848.0121814-1.4018186s1.0094397-.3911536 1.4018186-.0121814l2.459 2.46c.2859079.2859943.3714219.7160366.216678 1.0896546-.1547439.3736179-.5192821.6172591-.923678.6173454z"/>
            </g>
            <path id="Shape" d="m49.94 28.84c-.0317238.1284815-.0787253.2526999-.14.37l-11.02 20.01-1.01 1.84h-17.54l-1.01-1.84-10.73-19.48-.29-.53c-.06127467-.1173001-.10827622-.2415185-.14-.37-.1009009-.3691239-.06904988-.7619531.09-1.11.01-.02.02-.05.03-.07l3.98-7.76c.1979693-.404068.557589-.7055673.99-.83.3483542-.1017085.7203016-.0876728 1.06.04l6.5 2.51h16.58l6.5-2.51c.3396984-.1276728.7116458-.1417085 1.06-.04.432411.1244327.7920307.425932.99.83l3.98 7.76c.1880206.3639346.2309085.7856658.12 1.18z" fill="#67b0c3"/>
            <path id="Shape" d="m29 21.62v29.44h-3.85l-12-31.99c.3483542-.1017085.7203016-.0876728 1.06.04l6.5 2.51z" fill="#2f9fc3"/>
            <path id="Shape" d="m49.94 28.84c-.0317238.1284815-.0787253.2526999-.14.37l-.29.53-10.73 19.48-1.01 1.84h-4.92l12-31.99c.432411.1244327.7920307.425932.99.83l3.98 7.76c.01.03.03.05.03.08.1585813.3446325.1904529.7341738.09 1.1z" fill="#2f9fc3"/>
            <path id="Shape" d="m25.721 53.354c-.4150121-.0003596-.7866708-.257019-.934-.645l-11.241-29.453c-.1968895-.5161101.0618899-1.0941105.578-1.291s1.0941105.0618899 1.291.578l11.24 29.457c.1174786.3073874.0762091.6528969-.1103637.9239667-.1865727.2710699-.4945645.432999-.8236363.4330333z" fill="#3b8eca"/>
            <path id="Shape" d="m12.96 28.04-4.47 1.7-.29-.53c-.06127467-.1173001-.10827622-.2415185-.14-.37-.1009009-.3691239-.06904988-.7619531.09-1.11l4.1-1.56c.3340433-.1268293.7103747-.0658144.9872338.160061.276859.2258753.4121843.5822953.355.935-.0571843.3527046-.2981905.6481097-.6322338.774939z" fill="#3b8eca"/>
            <path id="Shape" d="m18.68 25.78c-.4826305-.0003123-.8961732-.3452895-.983027-.8200408-.0868537-.4747513.1777672-.9437956.629027-1.1149592l3.808-1.445c.3360704-.1355409.7191707-.0786659 1.0013695.1486631.2821989.2273291.4193342.5895369.3584523.9467596s-.3102535.6535577-.6518218.7745773l-3.808 1.442c-.1129067.043923-.2328551.0669639-.354.068z" fill="#3b8eca"/>
            <path id="Shape" d="m32.223 53.5c-.1217191.000117-.242412-.0222587-.356-.066-.5156477-.1968105-.7743422-.7741738-.578-1.29l11.3-29.6c.1273652-.3338647.4231702-.5744199.7759881-.6310507.3528179-.0566309.7090472.0792661.9345.3565.2254527.2772338.2858771.653686.1585119.9875507l-11.3 29.6c-.1481098.3875356-.5201262.6433715-.935.643z" fill="#3b8eca"/>
            <path id="Shape" d="m49.94 28.84c-.0317238.1284815-.0787253.2526999-.14.37l-.29.53-4.47-1.7c-.5163862-.1960611-.776061-.7736138-.58-1.29.1960611-.5163862.7736138-.7760611 1.29-.58l4.1 1.57c.1585813.3446325.1904529.7341738.09 1.1z" fill="#3b8eca"/>
            <path id="Shape" d="m39.32 25.78c-.12096-.0000784-.2409024-.0221017-.354-.065l-4.045-1.531c-.5166624-.1955088-.7770088-.7728376-.5815-1.2895s.7728376-.7770088 1.2895-.5815l4.045 1.532c.4512598.1711636.7158807.6402079.629027 1.1149592-.0868538.4747513-.5003965.8197285-.983027.8200408z" fill="#3b8eca"/>
            <path id="Shape" d="m56.1 10.549.069 2.941c.0023972.1070154.0353609.2111112.095.3l1.636 2.44c.1150128.1697283.1280784.3887396.0340607.5709381-.0940178.1821984-.2800866.2984527-.4850607.3030619l-2.94.069c-.10749.0040433-.211582.0387407-.3.1l-2.438 1.645c-.1698443.1145542-.3886859.1272209-.5706127.0330274-.1819268-.0941934-.2978985-.2802114-.3023873-.4850274l-.069-2.942c-.0040433-.10749-.0387407-.211582-.1-.3l-1.644-2.44c-.1143833-.17001-.1269761-.3888587-.0328484-.5708667s.2800002-.2982178.4848484-.3031333l2.939-.069c.1070993-.0018883.2113355-.0348965.3-.095l2.445-1.646c.1695762-.11759195.3900823-.13239437.5738539-.0385224.1837716.0938719.3010254.2812048.3051461.4875224z" fill="#e7bb19"/>
            <path id="Shape" d="m47.575.38.325 2.29c.009738.08490023.0445525.16497346.1.23l1.5 1.75c.1051122.12193539.1352404.29154073.0785542.4422175-.0566861.15067677-.1911355.25836634-.3505542.2807825l-2.285.327c-.0830811.01091336-.1612265.04564463-.225.1l-1.753 1.5c-.1222757.10500983-.2920994.1349479-.4429123.07808061-.1508129-.05686728-.258589-.19148042-.2810877-.35108061l-.322-2.29c-.0109134-.08308111-.0456446-.16122645-.1-.225l-1.507-1.75c-.1050098-.12227571-.1349479-.29209942-.0780806-.4429123.0568673-.15081289.1914804-.25858898.3510806-.2810877l2.288-.322c.083019-.01113334.1611048-.04583812.225-.1l1.754-1.507c.121796-.10507252.2912221-.13530792.4418444-.07885059.1506223.05645732.258432.19060817.2811556.34985059z" fill="#e7bb19"/>
            <path id="Shape" d="m1.905 10.549-.069 2.941c-.00239725.1070154-.03536091.2111112-.095.3l-1.641 2.44c-.11501276.1697283-.1280784.3887396-.03406066.5709381.09401774.1821984.28008659.2984527.48506066.3030619l2.94.069c.10748995.0040433.21158203.0387407.3.1l2.438 1.645c.16984433.1145542.38868594.1272209.57061272.0330274.18192677-.0941934.29789846-.2802114.30238728-.4850274l.069-2.942c.00404335-.10749.03874071-.211582.1-.3l1.644-2.44c.11438328-.17001.12697611-.3888587.0328484-.5708667s-.28000021-.2982178-.4848484-.3031333l-2.939-.069c-.10709927-.0018883-.21133553-.0348965-.3-.095l-2.445-1.646c-.16943298-.11483812-.38802152-.12808823-.57008518-.0345567-.18206365.0935316-.29859413.2789424-.30391482.4835567z" fill="#e7bb19"/>
            <path id="Shape" d="m10.425.38-.325 2.29c-.009738.08490023-.0445525.16497346-.1.23l-1.5 1.75c-.10511217.12193539-.13524037.29154073-.07855423.4422175s.19113553.25836634.35055423.2807825l2.289.323c.0830811.01091336.1612265.04564463.225.1l1.749 1.504c.1222757.10500983.2920994.1349479.4429123.07808061.1508129-.05686728.258589-.19148042.2810877-.35108061l.322-2.29c.0109134-.08308111.0456446-.16122645.1-.225l1.5-1.754c.1050098-.12227571.1349479-.29209942.0780806-.4429123-.0568673-.15081289-.1914804-.25858898-.3510806-.2810877l-2.288-.322c-.083019-.01113334-.1611048-.04583812-.225-.1l-1.747-1.505c-.1220747-.10515278-.29186-.13517417-.4425915-.07825894-.1507316.05691524-.2583008.19166384-.2804085.35125894z" fill="#e7bb19"/>
            <path id="Shape" d="m38.98 9.49-.07.51-5.58 40h-8.66l-.08-.61-.01-.03-3.87-27.74-1.62-11.62-.07-.51c-.0696626-.52705361.0664309-1.06068332.38-1.49.0792563-.10917086.169752-.20972168.27-.3l7.97-7.18c.7754229-.68991114 1.9445771-.68991114 2.72 0l7.97 7.18c.100248.09027832.1907437.19082914.27.3.3135691.42931668.4496626.96294639.38 1.49z" fill="#67b0c3"/>
            <path id="Shape" d="m26 9c0 .55228475-.4477153 1-1 1h-5.91l-.07-.51c-.0696626-.52705361.0664309-1.06068332.38-1.49h5.6c.5522847 0 1 .44771525 1 1z" fill="#3b8eca"/>
            <path id="Shape" d="m38.98 9.49-5.65 40.51h-4.33v-50c.5010753.00435906.9838379.18894479 1.36.52l7.97 7.18c.4992563.45252352.7425686 1.12256799.65 1.79z" fill="#2f9fc3"/>
            <path id="Shape" d="m29 51c-.5522847 0-1-.4477153-1-1v-45c0-.55228475.4477153-1 1-1s1 .44771525 1 1v45c0 .5522847-.4477153 1-1 1z" fill="#3b8eca"/>
            <path id="Shape" d="m38.98 9.49-.07.51h-5.91c-.5522847 0-1-.44771525-1-1s.4477153-1 1-1h5.6c.3135691.42931668.4496626.96294639.38 1.49z" fill="#3b8eca"/>
            <path id="Shape" d="m38 52v3h-18v-3c.0032948-1.1032019.8967981-1.9967052 2-2h14c1.1032019.0032948 1.9967052.8967981 2 2z" fill="#7f8384"/>
            <path id="Shape" d="m53 56c-.0032948 1.1032019-.8967981 1.9967052-2 2h-44c-1.10320187-.0032948-1.9967052-.8967981-2-2 .00816722-1.1011688.89883122-1.9918328 2-2h44c1.1032019.0032948 1.9967052.8967981 2 2z" fill="#8c9c9c"/>
        </g>
    </g>
</svg>