<svg height="512" viewBox="0 0 60 60" width="512"
    xmlns="http://www.w3.org/2000/svg">
    <g id="Page-1" fill="none" fill-rule="evenodd">
        <g id="006---Gems" fill-rule="nonzero">
            <path id="Shape" d="m44 13h-14-14l-7 11 21 27 21-27z" fill="#df4d60"/>
            <g fill="#f0c419">
                <path id="Shape" d="m4 31h-3c-.55228475 0-1-.4477153-1-1s.44771525-1 1-1h3c.55228475 0 1 .4477153 1 1s-.44771525 1-1 1z"/>
                <path id="Shape" d="m59 31h-3c-.5522847 0-1-.4477153-1-1s.4477153-1 1-1h3c.5522847 0 1 .4477153 1 1s-.4477153 1-1 1z"/>
                <path id="Shape" d="m30 60c-.5522847 0-1-.4477153-1-1v-3c0-.5522847.4477153-1 1-1s1 .4477153 1 1v3c0 .5522847-.4477153 1-1 1z"/>
                <path id="Shape" d="m30 5c-.5522847 0-1-.44771525-1-1v-3c0-.55228475.4477153-1 1-1s1 .44771525 1 1v3c0 .55228475-.4477153 1-1 1z"/>
                <path id="Shape" d="m9.494 51.506c-.40395711-.0004892-.76794763-.2439725-.92260109-.6171533s-.06959314-.8027596.21560109-1.0888467l2.121-2.121c.3923789-.3789722 1.0160848-.3735524 1.4018186.0121814s.3911536 1.0094397.0121814 1.4018186l-2.122 2.12c-.1872476.1873046-.44115178.2926784-.706.293z"/>
                <path id="Shape" d="m48.385 12.615c-.4043959-.0000863-.7689341-.2437275-.923678-.6173454-.1547439-.373618-.0692299-.8036603.216678-1.0896546l2.122-2.121c.2486399-.27014567.6253227-.38231463.9812426-.2921953.3559199.09011932.6338334.36803283.7239527.72395272s-.0220496.73260273-.2921953.98124258l-2.121 2.121c-.1873289.1879162-.4416616.2936783-.707.294z"/>
                <path id="Shape" d="m50.506 51.506c-.2651948-.0000566-.5195073-.1054506-.707-.293l-2.121-2.121c-.3789722-.3923789-.3735524-1.0160848.0121814-1.4018186s1.0094397-.3911536 1.4018186-.0121814l2.121 2.122c.2859079.2859943.3714219.7160366.216678 1.0896546-.1547439.3736179-.5192821.6172591-.923678.6173454z"/>
                <path id="Shape" d="m11.615 12.615c-.2651948-.0000566-.5195073-.1054506-.707-.293l-2.121-2.122c-.27014567-.24863985-.38231463-.62532269-.2921953-.98124258.09011932-.35591989.36803283-.6338334.72395272-.72395272.35591989-.09011933.73260273.02204963.98124258.2921953l2.121 2.121c.2859079.2859943.3714219.7160366.216678 1.0896546-.1547439.3736179-.5192821.6172591-.923678.6173454z"/>
            </g>
            <path id="Shape" d="m23 24h-14l7-11z" fill="#fb7b76"/>
            <path id="Shape" d="m51 24h-14l7-11z" fill="#fb7b76"/>
            <path id="Shape" d="m44 13-7 11-7-11z" fill="#ff5364"/>
            <path id="Shape" d="m30 13-7 11-7-11z" fill="#ff5364"/>
            <path id="Shape" d="m37 24h-14l7-11z" fill="#fb7b76"/>
            <path id="Shape" d="m37 24-1.56 6-1.3 5.04-4.14 15.96-7-27z" fill="#ff5364"/>
        </g>
    </g>
</svg>