<svg height="512" viewBox="0 0 58 58" width="512"
    xmlns="http://www.w3.org/2000/svg">
    <g id="Page-1" fill="none" fill-rule="evenodd">
        <g id="025---Landscape-Drawing" fill-rule="nonzero">
            <path id="Shape" d="m58 12v34l-58-3v-31z" fill="#9fc9d3"/>
            <path id="Shape" d="m50 58h-10c-1.1045695 0-2-.8954305-2-2v-4l7-1 7 1v4c0 1.1045695-.8954305 2-2 2z" fill="#fb7b76"/>
            <path id="Shape" d="m22.26 30.99-1.26 4.01-5 2-5-2-1.08-3.78 5.34-6.34c.1880953-.219439.4614847-.3473784.7504807-.3512062s.5656781.1168259.7595193.3312062z" fill="#ecf0f1"/>
            <path id="Shape" d="m58 7v7h-58v-7c.0032948-1.10320187.89679813-1.9967052 2-2h54c1.1032019.0032948 1.9967052.89679813 2 2z" fill="#e64c3c"/>
            <g fill="#95a5a5">
                <rect id="Rectangle-path" height="10" rx="3" width="6" x="5"/>
                <rect id="Rectangle-path" height="10" rx="3" width="6" x="19"/>
                <rect id="Rectangle-path" height="10" rx="3" width="6" x="33"/>
                <rect id="Rectangle-path" height="10" rx="3" width="6" x="47"/>
                <path id="Shape" d="m58 46v3c-.0032948 1.1032019-.8967981 1.9967052-2 2h-54c-1.10320187-.0032948-1.9967052-.8967981-2-2v-6l9.92-11.78 2.08 2.78 4-2 4 2 2.26-3.01 6.56 7.34 1.35 1.51.01.01 7.82-9.28 14 8.72z"/>
            </g>
            <path id="Shape" d="m30.17 39.84-4.65 5.52c-.1868038.2275469-.4655971.3596069-.76.36-.3898243-.0011038-.7439201-.2273196-.9087717-.5805732-.1648517-.3532536-.1107804-.7699474.1387717-1.0694268l4.83-5.74z" fill="#7f8c8d"/>
            <circle id="Oval" cx="29" cy="23" fill="#f3d55b" r="4"/>
            <path id="Shape" d="m52 28.59v19.41l-7 2-7-2v-19.41c.00135-.1861321.0282684-.3711961.08-.55 2.92-3.04 10.92-3.04 13.84 0 .0517316.1788039.07865.3638679.08.55z" fill="#3b97d3"/>
            <path id="Rectangle-path" d="m44 27h2v21h-2z" fill="#2980ba"/>
            <path id="Shape" d="m51.92 28.04c-.58.3-4.17 2.02-6.92-.04-2.75 2.06-6.34.34-6.92.04.0507289-.1916336.1317501-.3739313.24-.54l3.13-4.85c.98.21 2.15-1.65 3.55-1.65s2.57 1.86 3.55 1.65l3.13 4.85c.1082499.1660687.1892711.3483664.24.54z" fill="#fdd7ad"/>
            <path id="Shape" d="m48.55 22.65c-2.3436631.4666554-4.7563369.4666554-7.1 0l2.71-4.19c.1842034-.2851728.5005086-.4574136.84-.4574136s.6557966.1722408.84.4574136z" fill="#35495e"/>
            <rect id="Rectangle-path" fill="#bdc3c7" height="4" rx="1" width="18" x="36" y="48"/>
        </g>
    </g>
</svg>