<svg height="512pt" viewBox="0 -22 512.00052 512" width="512pt"
    xmlns="http://www.w3.org/2000/svg">
    <path d="m150.070312 273.65625h-141.242187c-3.28125-.003906-6.28125-1.84375-7.769531-4.769531-.707032-1.234375-1.074219-2.636719-1.058594-4.058594v-256c.015625-4.871094 3.957031-8.8125 8.828125-8.828125h344.277344c4.867187.015625 8.8125 3.957031 8.824219 8.828125v132.414063" fill="#3b97d3"/>
    <path d="m220.691406 141.242188h-61.792968c-4.871094.011718-8.816407 3.957031-8.828126 8.828124v123.585938h-72.121093l48.375-92.691406 49.726562-95.335938c1.519531-2.917968 4.535157-4.746094 7.828125-4.746094 3.289063 0 6.304688 1.828126 7.824219 4.746094zm0 0" fill="#a5a5a4"/>
    <path d="m441.378906 308.964844v-158.894532c-.011718-4.871093-3.957031-8.816406-8.828125-8.828124h-273.652343c-4.871094.011718-8.816407 3.957031-8.828126 8.828124v203.035157c0 3.742187 2.375 7.074219 5.914063 8.296875.929687.359375 1.917969.539062 2.914063.527344h141.238281" fill="#2fa8cc"/>
    <path d="m308.964844 308.964844h194.207031c4.875 0 8.828125 3.953125 8.828125 8.828125v141.242187c0 4.875-3.953125 8.828125-8.828125 8.828125h-194.207031c-4.875 0-8.828125-3.953125-8.828125-8.828125v-141.242187c0-4.875 3.953125-8.828125 8.828125-8.828125zm0 0" fill="#67b9cc"/>
    <path d="m126.324219 180.964844-48.375 92.691406h-69.121094c-3.28125-.003906-6.28125-1.84375-7.769531-4.769531l77.914062-148.117188c1.523438-2.902343 4.53125-4.71875 7.808594-4.722656 3.277344 0 6.289062 1.816406 7.816406 4.714844zm0 0" fill="#d1d4d1"/>
    <path d="m345.777344 141.242188h-110.433594l47.351562-90.910157c1.519532-2.917969 4.535157-4.75 7.824219-4.75 3.289063-.003906 6.308594 1.828125 7.828125 4.742188zm0 0" fill="#5e5f62"/>
    <g fill="#f3d55b">
        <path d="m79.449219 52.964844c0 14.628906-11.855469 26.484375-26.484375 26.484375-14.625 0-26.480469-11.855469-26.480469-26.484375 0-14.625 11.855469-26.480469 26.480469-26.480469 14.628906 0 26.484375 11.855469 26.484375 26.480469zm0 0"/>
        <path d="m220.691406 189.792969c0 12.1875-9.882812 22.070312-22.070312 22.070312s-22.070313-9.882812-22.070313-22.070312 9.882813-22.070313 22.070313-22.070313 22.070312 9.882813 22.070312 22.070313zm0 0"/>
        <path d="m361.929688 353.105469c0 9.75-7.902344 17.652343-17.652344 17.652343s-17.65625-7.902343-17.65625-17.652343c0-9.753907 7.90625-17.65625 17.65625-17.65625s17.652344 7.902343 17.652344 17.65625zm0 0"/>
    </g>
    <path d="m268.800781 329.710938-16.949219 32.21875h-92.953124c-.996094.011718-1.984376-.167969-2.914063-.527344l56.902344-108.214844c1.523437-2.902344 4.53125-4.71875 7.808593-4.722656 3.277344 0 6.289063 1.8125 7.816407 4.714844l31.726562 60.199218zm0 0" fill="#a5a5a4"/>
    <path d="m391.238281 308.964844h-82.273437c-4.867188.015625-8.8125 3.960937-8.828125 8.828125v44.136719h-48.285157l16.949219-32.21875 58.84375-111.839844c1.523438-2.902344 4.53125-4.71875 7.808594-4.722656 3.277344 0 6.289063 1.816406 7.816406 4.714843l31.726563 60.207031zm0 0" fill="#5e5f62"/>
    <path d="m457.179688 467.863281h-102.222657l43.304688-82.273437c1.527343-2.902344 4.535156-4.71875 7.8125-4.71875 3.277343-.003906 6.285156 1.8125 7.8125 4.714844l31.730469 60.207031zm0 0" fill="#5e5f62"/>
</svg>