<?xml version="1.0" encoding="iso-8859-1"?>
<!-- Generator: Adobe Illustrator 19.0.0, SVG Export Plug-In . SVG Version: 6.00 Build 0)  -->
<svg version="1.1" id="Layer_1" xmlns="http://www.w3.org/2000/svg" xmlns:xlink="http://www.w3.org/1999/xlink" x="0px" y="0px"
	 viewBox="0 0 291.362 291.362" style="enable-background:new 0 0 291.362 291.362;" xml:space="preserve">
<g>
	<g>
		<rect x="140.919" y="191.362" style="fill:#F9BA48;" width="9.524" height="100"/>
		<rect x="117.11" y="191.362" style="fill:#F9BA48;" width="9.524" height="76.19"/>
		<rect x="93.3" y="234.219" style="fill:#F9BA48;" width="9.524" height="9.524"/>
		<rect x="93.3" y="191.362" style="fill:#F9BA48;" width="9.524" height="33.333"/>
		<rect x="164.729" y="258.029" style="fill:#F9BA48;" width="9.524" height="9.524"/>
		<rect x="164.729" y="191.362" style="fill:#F9BA48;" width="9.524" height="57.143"/>
		<rect x="188.538" y="191.362" style="fill:#F9BA48;" width="9.524" height="52.381"/>
		<circle style="fill:#F9BA48;" cx="145.681" cy="81.838" r="33.333"/>
		<path style="fill:#333333;" d="M202.824,115.871V84.619c0-30.214-15.214-57.933-40.705-74.157L145.681,0l-16.438,10.457
			c-25.49,16.229-40.705,43.948-40.705,74.162v31.252c-24.705,4.771-42.857,26.376-42.857,51.948v56.876h9.524
			c0-15.757,12.814-28.571,28.571-28.571h123.809c15.757,0,28.571,12.814,28.571,28.571h9.524v-56.876
			C245.681,142.248,227.529,120.643,202.824,115.871z M134.357,18.495l11.324-7.2l11.324,7.205
			C179.729,32.962,193.3,57.681,193.3,84.619v59.124H98.062V84.619C98.062,57.681,111.633,32.962,134.357,18.495z M83.776,186.6
			c-11.367,0-21.586,5.005-28.571,12.924v-31.705c0-20.338,14.005-37.6,33.333-42.19V186.6H83.776z M98.062,186.6v-33.333H193.3
			V186.6H98.062z M236.157,199.524c-6.986-7.919-17.205-12.924-28.571-12.924h-4.762v-60.976
			c19.329,4.595,33.333,21.857,33.333,42.19L236.157,199.524L236.157,199.524z"/>
		<polygon style="fill:#333333;" points="21.871,38.981 12.348,38.981 12.348,48.505 2.824,48.505 2.824,58.029 12.348,58.029 
			12.348,67.552 21.871,67.552 21.871,58.029 31.395,58.029 31.395,48.505 21.871,48.505 		"/>
		<polygon style="fill:#333333;" points="45.681,48.505 55.205,48.505 55.205,34.219 69.491,34.219 69.491,24.695 55.205,24.695 
			55.205,10.41 45.681,10.41 45.681,24.695 31.395,24.695 31.395,34.219 45.681,34.219 		"/>
		<polygon style="fill:#333333;" points="64.729,91.362 64.729,81.838 74.252,81.838 74.252,72.314 64.729,72.314 64.729,62.79 
			55.205,62.79 55.205,72.314 45.681,72.314 45.681,81.838 55.205,81.838 55.205,91.362 		"/>
		<polygon style="fill:#333333;" points="231.395,62.79 240.919,62.79 240.919,53.267 250.443,53.267 250.443,43.743 
			240.919,43.743 240.919,34.219 231.395,34.219 231.395,43.743 221.871,43.743 221.871,53.267 231.395,53.267 		"/>
		<polygon style="fill:#333333;" points="288.538,77.076 274.252,77.076 274.252,62.79 264.729,62.79 264.729,77.076 
			250.443,77.076 250.443,86.6 264.729,86.6 264.729,100.886 274.252,100.886 274.252,86.6 288.538,86.6 		"/>
		<polygon style="fill:#333333;" points="221.871,105.648 231.395,105.648 231.395,96.124 240.919,96.124 240.919,86.6 
			231.395,86.6 231.395,77.076 221.871,77.076 221.871,86.6 212.348,86.6 212.348,96.124 221.871,96.124 		"/>
	</g>
</g>
<g>
</g>
<g>
</g>
<g>
</g>
<g>
</g>
<g>
</g>
<g>
</g>
<g>
</g>
<g>
</g>
<g>
</g>
<g>
</g>
<g>
</g>
<g>
</g>
<g>
</g>
<g>
</g>
<g>
</g>
</svg>
