<?xml version="1.0" encoding="iso-8859-1"?>
<!-- Generator: Adobe Illustrator 19.0.0, SVG Export Plug-In . SVG Version: 6.00 Build 0)  -->
<svg version="1.1" id="Capa_1" xmlns="http://www.w3.org/2000/svg" xmlns:xlink="http://www.w3.org/1999/xlink" x="0px" y="0px"
	 viewBox="0 0 512.011 512.011" style="enable-background:new 0 0 512.011 512.011;" xml:space="preserve">
<g>
	<path style="fill:#64B5F6;" d="M231.571,280.456l-42.667-42.667c-2.004-1.999-4.721-3.12-7.552-3.115h-42.667
		c-5.891,0-10.667,4.776-10.667,10.667v149.333c-0.003,4.529,2.853,8.566,7.125,10.069c1.137,0.403,2.335,0.605,3.541,0.597
		c3.242,0.007,6.312-1.461,8.341-3.989l85.333-106.667C235.769,290.436,235.429,284.302,231.571,280.456z"/>
	<path style="fill:#64B5F6;" d="M401.342,365l-106.667-85.333c-4.245-3.396-10.365-3.056-14.208,0.789L237.8,323.123
		c-1.999,2.004-3.12,4.721-3.115,7.552v42.667c0,5.891,4.776,10.667,10.667,10.667h149.333c5.891,0.004,10.67-4.768,10.674-10.659
		C405.363,370.099,403.883,367.026,401.342,365z"/>
	<path style="fill:#64B5F6;" d="M376.894,107.272c-4.273-1.502-9.029-0.142-11.861,3.392l-85.333,106.667
		c-3.396,4.245-3.056,10.365,0.789,14.208l42.667,42.667c1.996,2.002,4.704,3.13,7.531,3.136h42.667
		c5.891,0,10.667-4.776,10.667-10.667V117.341C384.022,112.813,381.166,108.775,376.894,107.272z"/>
	<path style="fill:#64B5F6;" d="M266.686,128.008H117.352c-5.891-0.016-10.68,4.747-10.696,10.638
		c-0.009,3.257,1.471,6.34,4.018,8.37l106.667,85.333c4.245,3.396,10.365,3.056,14.208-0.789l42.667-42.667
		c2.007-2.001,3.135-4.718,3.136-7.552v-42.667C277.352,132.784,272.577,128.008,266.686,128.008z"/>
</g>
<g>
	<path style="fill:#2196F3;" d="M511.208,262.6c-1.649-3.989-5.54-6.591-9.856-6.592h-192c-2.831-0.005-5.548,1.115-7.552,3.115
		l-21.333,21.333c-4.167,4.164-4.169,10.918-0.004,15.085c0.278,0.278,0.572,0.541,0.879,0.787l106.667,85.333
		c4.245,3.396,10.365,3.056,14.208-0.789l106.667-106.667C511.93,271.161,512.847,266.583,511.208,262.6z"/>
	<path style="fill:#2196F3;" d="M380.904,109.789L274.238,3.123c-3.053-3.049-7.642-3.958-11.627-2.304
		c-3.989,1.649-6.591,5.539-6.592,9.856v192c-0.005,2.831,1.115,5.548,3.115,7.552l21.333,21.333
		c2.004,1.999,4.721,3.12,7.552,3.115h0.597c3.031-0.167,5.848-1.618,7.744-3.989l85.333-106.667
		C385.103,119.77,384.762,113.635,380.904,109.789z"/>
	<path style="fill:#2196F3;" d="M230.675,215.667l-106.667-85.333c-4.245-3.396-10.365-3.056-14.208,0.789L3.134,237.789
		c-4.171,4.16-4.179,10.914-0.019,15.085c2.006,2.011,4.731,3.139,7.571,3.134h192c2.831,0.005,5.548-1.115,7.552-3.115
		l21.333-21.333c4.167-4.164,4.169-10.918,0.004-15.085c-0.278-0.278-0.572-0.541-0.879-0.787L230.675,215.667z"/>
	<path style="fill:#2196F3;" d="M252.904,301.789l-21.333-21.333c-2.129-2.181-5.108-3.32-8.149-3.115
		c-3.031,0.167-5.848,1.618-7.744,3.989l-85.333,106.667c-3.396,4.245-3.056,10.365,0.789,14.208L237.8,508.872
		c2.001,2.007,4.718,3.135,7.552,3.136c1.398-0.001,2.783-0.276,4.075-0.811c3.989-1.649,6.591-5.54,6.592-9.856v-192
		C256.024,306.51,254.904,303.794,252.904,301.789z"/>
</g>
<g>
</g>
<g>
</g>
<g>
</g>
<g>
</g>
<g>
</g>
<g>
</g>
<g>
</g>
<g>
</g>
<g>
</g>
<g>
</g>
<g>
</g>
<g>
</g>
<g>
</g>
<g>
</g>
<g>
</g>
</svg>
