<svg height="511pt" viewBox="-8 0 511 511.99062" width="511pt"
    xmlns="http://www.w3.org/2000/svg">
    <path d="m120.242188 104.367188c0 16.96875-13.753907 30.722656-30.71875 30.722656-16.96875 0-30.722657-13.753906-30.722657-30.722656 0-16.964844 13.753907-30.71875 30.722657-30.71875 16.964843 0 30.71875 13.753906 30.71875 30.71875zm0 0" fill="#ff5364"/>
    <path d="m438.839844 422.964844c0 16.964844-13.753906 30.71875-30.722656 30.71875-16.964844 0-30.71875-13.753906-30.71875-30.71875s13.753906-30.71875 30.71875-30.71875c16.96875 0 30.722656 13.753906 30.722656 30.71875zm0 0" fill="#3d324c"/>
    <path d="m61.933594 205.363281c0 16.96875-13.753906 30.722657-30.71875 30.722657s-30.71875-13.753907-30.71875-30.722657c0-16.964843 13.753906-30.71875 30.71875-30.71875s30.71875 13.753907 30.71875 30.71875zm0 0" fill="#e64c3c"/>
    <path d="m61.933594 321.976562c0 16.964844-13.753906 30.71875-30.71875 30.71875s-30.71875-13.753906-30.71875-30.71875c0-16.964843 13.753906-30.71875 30.71875-30.71875s30.71875 13.753907 30.71875 30.71875zm0 0" fill="#c03a2b"/>
    <path d="m120.242188 422.964844c0 16.964844-13.753907 30.71875-30.71875 30.71875-16.96875 0-30.722657-13.753906-30.722657-30.71875s13.753907-30.71875 30.722657-30.71875c16.964843 0 30.71875 13.753906 30.71875 30.71875zm0 0" fill="#955ba5"/>
    <path d="m221.230469 481.269531c0 16.96875-13.753907 30.722657-30.722657 30.722657-16.964843 0-30.71875-13.753907-30.71875-30.722657 0-16.964843 13.753907-30.71875 30.71875-30.71875 16.96875 0 30.722657 13.753907 30.722657 30.71875zm0 0" fill="#804169"/>
    <path d="m337.839844 481.269531c0 16.96875-13.753906 30.722657-30.71875 30.722657s-30.71875-13.753907-30.71875-30.722657c0-16.964843 13.753906-30.71875 30.71875-30.71875s30.71875 13.753907 30.71875 30.71875zm0 0" fill="#3d324c"/>
    <path d="m260.386719 44.710938c-7.082031-.324219-12.675781-6.132813-12.726563-13.222657v-22.660156c0-3.449219-2.007812-6.582031-5.140625-8.019531-3.132812-1.441406-6.816406-.925782-9.433593 1.316406l-61.792969 62.679688c-1.785157 1.535156-2.882813 3.71875-3.050781 6.070312-.164063 2.347656.613281 4.664062 2.167968 6.4375l61.792969 69.738281c2.421875 2.753907 6.296875 3.722657 9.734375 2.433594 3.433594-1.292969 5.714844-4.574219 5.722656-8.242187v-21.1875c.011719-3.722657 1.578125-7.273438 4.324219-9.785157 2.742187-2.515625 6.414063-3.769531 10.125-3.457031 95.9375 7.875 170.929687 72.863281 170.929687 171.257812.003907 17.078126-2.300781 34.082032-6.851562 50.542969-.921875 3.40625-.433594 7.039063 1.351562 10.082031 1.789063 3.039063 4.722657 5.234376 8.148438 6.082032l34.230469 8.828125c7.066406 1.734375 14.21875-2.503907 16.085937-9.53125 5.859375-21.515625 8.828125-43.710938 8.828125-66.003907 0-132.890624-103.726562-225.609374-234.445312-233.359374zm0 0" fill="#ff5364"/>
</svg>